<svg width="62" height="61" fill="none" xmlns="http://www.w3.org/2000/svg"><path d="M36 59.5c13.531 0 24.5-10.969 24.5-24.5S49.531 10.5 36 10.5 11.5 21.469 11.5 35 22.469 59.5 36 59.5z" fill="#F6FAF4"/><path d="M36 12c12.68 0 23 10.32 23 23S48.68 58 36 58 13 47.68 13 35s10.32-23 23-23zm0-3C21.64 9 10 20.64 10 35s11.64 26 26 26 26-11.64 26-26S50.36 9 36 9z" fill="#231F20"/><path d="M27.7 42.97C10.65 41.34 2.74 29.16 1.59 2.67c15.49 9.17 30.57 20.75 26.11 40.3z" fill="#F6FAF4"/><path d="M3.24 5.41c13.77 8.45 26.35 19.08 23.27 35.91-14.64-2-21.78-12.98-23.27-35.91zM0 0c.66 25.77 7.21 43.17 28.86 44.57C34.76 22.28 16.74 9.67 0 0z" fill="#231F20"/><path d="M27.5 42.5L8 14" stroke="#231F20" stroke-miterlimit="10" stroke-linecap="round"/><path d="M28.97 44.65c-9.75-15.54-1.7-28.12 14.67-40.51 1.97 15.99 2.67 34.24-14.67 40.51z" fill="#69BD45"/><path d="M16.62 26.6l-2.12-9.1m-1 11l6.79 3.46" stroke="#231F20" stroke-miterlimit="10" stroke-linecap="round"/></svg>