<svg width="64" height="64" fill="none" xmlns="http://www.w3.org/2000/svg"><g clip-path="url(#clip0_127:1804)"><path d="M4 62.5A2.5 2.5 0 011.5 60V4A2.5 2.5 0 014 1.5h32A2.5 2.5 0 0138.5 4v56a2.5 2.5 0 01-2.5 2.5H4z" fill="#F6FAF4"/><path d="M36 3c.55 0 1 .45 1 1v56c0 .55-.45 1-1 1H4c-.55 0-1-.45-1-1V4c0-.55.45-1 1-1h32zm0-3H4C1.79 0 0 1.79 0 4v56c0 2.21 1.79 4 4 4h32c2.21 0 4-1.79 4-4V4c0-2.21-1.79-4-4-4z" fill="#231F20"/><path d="M61 46h-4.65c-.33 0-.64.16-.83.44l-4.77 7c-.55.8-1.8.43-1.83-.54l-.14-5.91c-.01-.54-.46-.98-1-.98H15c-.55 0-1-.45-1-1V15c0-.55.45-1 1-1h46c.55 0 1 .45 1 1v30c0 .55-.45 1-1 1z" fill="#F6FAF4" stroke="#231F20" stroke-width="3" stroke-miterlimit="10"/><path d="M21 36h17.5M21 36h17m-17-7h34m-34 0h34m-34-7h34m-34 0h34" stroke="#69BD45" stroke-width="3" stroke-miterlimit="10"/><path d="M16 6.5h8" stroke="#231F20" stroke-width="2" stroke-miterlimit="10"/></g><defs><clipPath id="clip0_127:1804"><path fill="#fff" d="M0 0h63.5v64H0z"/></clipPath></defs></svg>