<svg width="64" height="64" fill="none" xmlns="http://www.w3.org/2000/svg"><path d="M4.3 60.5c-.71 0-1.38-.29-1.84-.8-.44-.48-.65-1.09-.6-1.73L5.3 17.89c.02-.22.23-.39.47-.39h35.87c.25 0 .45.17.47.39l3.44 40.09c.05.63-.16 1.25-.6 1.73-.47.51-1.14.8-1.84.8H4.3v-.01z" fill="#F6FAF4"/><path d="M40.7 19l3.36 39.11c.02.27-.1.47-.21.58-.11.11-.34.31-.74.31H4.3c-.39 0-.63-.2-.74-.31a.755.755 0 01-.21-.58L6.71 19H40.7zm.94-3H5.77c-1.03 0-1.88.76-1.97 1.76L.36 57.85C.17 60.08 1.99 62 4.3 62h38.81c2.31 0 4.13-1.92 3.94-4.15l-3.44-40.09c-.09-1-.95-1.76-1.97-1.76z" fill="#231F20"/><path d="M11.7 16V5.39c0-1.87 1.79-3.39 4-3.39h16c2.21 0 4 1.52 4 3.39V16" stroke="#231F20" stroke-width="3" stroke-miterlimit="10"/><path d="M48 64c8.837 0 16-7.163 16-16s-7.163-16-16-16-16 7.163-16 16 7.163 16 16 16z" fill="#69BD45"/><path d="M54 48h-6V37" stroke="#231F20" stroke-width="3" stroke-miterlimit="10"/></svg>