<svg width="64" height="64" fill="none" xmlns="http://www.w3.org/2000/svg"><path d="M4 62.5A2.5 2.5 0 011.5 60V22A2.5 2.5 0 014 19.5h52a2.5 2.5 0 012.5 2.5v38a2.5 2.5 0 01-2.5 2.5H4z" fill="#F6FAF4"/><path d="M56 21c.55 0 1 .45 1 1v38c0 .55-.45 1-1 1H4c-.55 0-1-.45-1-1V22c0-.55.45-1 1-1h52zm0-3H4c-2.21 0-4 1.79-4 4v38c0 2.21 1.79 4 4 4h52c2.21 0 4-1.79 4-4V22c0-2.21-1.79-4-4-4z" fill="#231F20"/><path d="M48 47.5a2.5 2.5 0 01-2.5-2.5v-8a2.5 2.5 0 012.5-2.5h12a2.5 2.5 0 012.5 2.5v8a2.5 2.5 0 01-2.5 2.5H48z" fill="#F6FAF4"/><path d="M60 36c.55 0 1 .45 1 1v8c0 .55-.45 1-1 1H48c-.55 0-1-.45-1-1v-8c0-.55.45-1 1-1h12zm0-3H48c-2.21 0-4 1.79-4 4v8c0 2.21 1.79 4 4 4h12c2.21 0 4-1.79 4-4v-8c0-2.21-1.79-4-4-4z" fill="#231F20"/><path d="M52 43a2 2 0 100-4 2 2 0 000 4z" fill="#231F20"/><path d="M30 12c0 2.19-.58 4.24-1.6 6H7.6C6.58 16.24 6 14.19 6 12 6 5.37 11.37 0 18 0s12 5.37 12 12z" fill="#69BD45"/><path d="M46 12a5 5 0 100-10 5 5 0 000 10z" fill="#231F20"/></svg>